<?xml version="1.0" encoding="utf-8"?>
<!-- Generator: Adobe Illustrator 17.0.0, SVG Export Plug-In . SVG Version: 6.00 Build 0)  --><!DOCTYPE svg PUBLIC "-//W3C//DTD SVG 1.1//EN" "http://www.w3.org/Graphics/SVG/1.1/DTD/svg11.dtd"><svg version="1.1" id="Слой_1" xmlns="http://www.w3.org/2000/svg" xmlns:xlink="http://www.w3.org/1999/xlink" x="0px" y="0px"	 width="20px" height="20.125px" viewBox="0 0 20 20.125" enable-background="new 0 0 20 20.125" xml:space="preserve"><g>	<g>		<g>			<polygon fill-rule="evenodd" clip-rule="evenodd" fill="#b8b8b8" points="13.535,8.004 12.121,6.589 10,8.711 7.878,6.59 				6.464,8.004 8.586,10.125 6.464,12.246 7.878,13.661 10,11.539 12.121,13.661 13.535,12.246 11.414,10.125 			"/>		</g>	</g>	<g>		<g opacity="0.5">			<path fill="#6B767C" d="M10,2.125c4.411,0,8,3.589,8,8s-3.589,8-8,8s-8-3.589-8-8S5.589,2.125,10,2.125 M10,0.125				c-5.523,0-10,4.477-10,10c0,5.523,4.477,10,10,10c5.523,0,10-4.477,10-10C20,4.602,15.523,0.125,10,0.125L10,0.125z"/>		</g>	</g></g></svg>