<?xml version="1.0" encoding="UTF-8" standalone="no"?>
<svg width="196px" height="17px" viewBox="0 0 196 17" version="1.1" xmlns="http://www.w3.org/2000/svg" xmlns:xlink="http://www.w3.org/1999/xlink">
    <!-- Generator: Sketch 3.7.2 (28276) - http://www.bohemiancoding.com/sketch -->
    <title>SMARTJOBBOARD</title>
    <desc>Created with Sketch.</desc>
    <defs></defs>
    <g id="Page-1" stroke="none" stroke-width="1" fill="none" fill-rule="evenodd">
        <g id="SJB-1" transform="translate(-14.000000, -29.000000)" fill="#FFFFFF">
            <g id="Top-menu">
                <path d="M19.918,42.382 C20.4020024,42.382 20.8016651,42.3416671 21.117,42.261 C21.4323349,42.1803329 21.6853324,42.070334 21.876,41.931 C22.0666676,41.791666 22.1986663,41.6266676 22.272,41.436 C22.3453337,41.2453324 22.382,41.0326678 22.382,40.798 C22.382,40.2993308 22.1473357,39.8850016 21.678,39.555 C21.2086643,39.2249983 20.4020057,38.8693352 19.258,38.488 C18.7593308,38.3119991 18.2606692,38.1103345 17.762,37.883 C17.2633308,37.6556655 16.816002,37.3696684 16.42,37.025 C16.023998,36.6803316 15.7013346,36.2623358 15.452,35.771 C15.2026654,35.2796642 15.078,34.6820035 15.078,33.978 C15.078,33.2739965 15.2099987,32.6396695 15.474,32.075 C15.7380013,31.5103305 16.1119976,31.030002 16.596,30.634 C17.0800024,30.237998 17.6666632,29.9336677 18.356,29.721 C19.0453368,29.5083323 19.8226623,29.402 20.688,29.402 C21.7146718,29.402 22.6019963,29.5119989 23.35,29.732 C24.0980037,29.9520011 24.7139976,30.1939987 25.198,30.458 L24.208,33.164 C23.7826645,32.9439989 23.3096693,32.7496675 22.789,32.581 C22.2683307,32.4123325 21.641337,32.328 20.908,32.328 C20.0866626,32.328 19.4963351,32.4416655 19.137,32.669 C18.7776649,32.8963345 18.598,33.2446643 18.598,33.714 C18.598,33.9926681 18.6639993,34.2273324 18.796,34.418 C18.9280007,34.6086676 19.1149988,34.7809992 19.357,34.935 C19.5990012,35.0890008 19.8776651,35.2283327 20.193,35.353 C20.5083349,35.4776673 20.8566648,35.6059993 21.238,35.738 C22.030004,36.0313348 22.7193304,36.3209986 23.306,36.607 C23.8926696,36.8930014 24.3803314,37.2266648 24.769,37.608 C25.1576686,37.9893352 25.4473324,38.4366641 25.638,38.95 C25.8286676,39.4633359 25.924,40.086663 25.924,40.82 C25.924,42.2426738 25.4253383,43.3463294 24.428,44.131 C23.4306617,44.9156706 21.9273434,45.308 19.918,45.308 C19.24333,45.308 18.6346694,45.2676671 18.092,45.187 C17.5493306,45.1063329 17.0690021,45.0073339 16.651,44.89 C16.2329979,44.7726661 15.8736682,44.6480007 15.573,44.516 C15.2723318,44.3839993 15.0193344,44.2593339 14.814,44.142 L15.782,41.414 C16.2366689,41.6633346 16.7976633,41.886999 17.465,42.085 C18.1323367,42.283001 18.9499952,42.382 19.918,42.382 L19.918,42.382 Z M32.612,29.754 C32.8760013,30.2380024 33.1803316,30.8356631 33.525,31.547 C33.8696684,32.2583369 34.2289981,33.0283292 34.603,33.857 C34.9770019,34.6856708 35.3473315,35.5326623 35.714,36.398 C36.0806685,37.2633377 36.4253317,38.0773295 36.748,38.84 C37.0706683,38.0773295 37.4153315,37.2633377 37.782,36.398 C38.1486685,35.5326623 38.5189981,34.6856708 38.893,33.857 C39.2670019,33.0283292 39.6263316,32.2583369 39.971,31.547 C40.3156684,30.8356631 40.6199987,30.2380024 40.884,29.754 L44.008,29.754 C44.1546674,30.7660051 44.2903327,31.8989937 44.415,33.153 C44.5396673,34.4070063 44.6496662,35.7123266 44.745,37.069 C44.8403338,38.4256734 44.9283329,39.7859932 45.009,41.15 C45.0896671,42.5140068 45.159333,43.7973273 45.218,45 L41.874,45 C41.8299998,43.5186593 41.7713337,41.9053421 41.698,40.16 C41.6246663,38.4146579 41.5146674,36.6546755 41.368,34.88 C41.1039987,35.4960031 40.8106683,36.1779963 40.488,36.926 C40.1653317,37.6740037 39.8463349,38.4219963 39.531,39.17 C39.2156651,39.9180037 38.9113348,40.6329966 38.618,41.315 C38.3246652,41.9970034 38.0753344,42.5799976 37.87,43.064 L35.472,43.064 C35.2666656,42.5799976 35.0173348,41.9970034 34.724,41.315 C34.4306652,40.6329966 34.1263349,39.9180037 33.811,39.17 C33.4956651,38.4219963 33.1766683,37.6740037 32.854,36.926 C32.5313317,36.1779963 32.2380013,35.4960031 31.974,34.88 C31.8273326,36.6546755 31.7173337,38.4146579 31.644,40.16 C31.5706663,41.9053421 31.5120002,43.5186593 31.468,45 L28.124,45 C28.182667,43.7973273 28.2523329,42.5140068 28.333,41.15 C28.4136671,39.7859932 28.5016662,38.4256734 28.597,37.069 C28.6923338,35.7123266 28.8023327,34.4070063 28.927,33.153 C29.0516673,31.8989937 29.1873326,30.7660051 29.334,29.754 L32.612,29.754 Z M58.506,45 C58.3446659,44.4719974 58.165001,43.9293361 57.967,43.372 C57.768999,42.8146639 57.5746676,42.2573361 57.384,41.7 L51.444,41.7 C51.2533324,42.2573361 51.059001,42.8146639 50.861,43.372 C50.662999,43.9293361 50.4833341,44.4719974 50.322,45 L46.758,45 C47.3300029,43.3573251 47.8726641,41.8393403 48.386,40.446 C48.8993359,39.0526597 49.4016642,37.7400062 49.893,36.508 C50.3843358,35.2759938 50.8683309,34.1063389 51.345,32.999 C51.821669,31.8916611 52.3166641,30.8100053 52.83,29.754 L56.108,29.754 C56.6066692,30.8100053 57.0979976,31.8916611 57.582,32.999 C58.0660024,34.1063389 58.5536642,35.2759938 59.045,36.508 C59.5363358,37.7400062 60.0386641,39.0526597 60.552,40.446 C61.0653359,41.8393403 61.6079971,43.3573251 62.18,45 L58.506,45 Z M54.392,33.208 C54.3186663,33.4280011 54.2086674,33.7286648 54.062,34.11 C53.9153326,34.4913352 53.7466676,34.9313308 53.556,35.43 C53.3653324,35.9286692 53.1563345,36.4786637 52.929,37.08 C52.7016655,37.6813363 52.4706678,38.3119967 52.236,38.972 L56.57,38.972 C56.3353322,38.3119967 56.1080011,37.6813363 55.888,37.08 C55.6679989,36.4786637 55.459001,35.9286692 55.261,35.43 C55.062999,34.9313308 54.8906674,34.4913352 54.744,34.11 C54.5973326,33.7286648 54.4800004,33.4280011 54.392,33.208 L54.392,33.208 Z M68.626,29.578 C70.9140114,29.578 72.6666606,29.9849959 73.884,30.799 C75.1013394,31.6130041 75.71,32.8779914 75.71,34.594 C75.71,35.664672 75.4643358,36.5336633 74.973,37.201 C74.4816642,37.8683367 73.7740046,38.3926648 72.85,38.774 C73.1580015,39.1553352 73.480665,39.5916642 73.818,40.083 C74.155335,40.5743358 74.4889983,41.087664 74.819,41.623 C75.1490016,42.158336 75.4679985,42.7156638 75.776,43.295 C76.0840015,43.8743362 76.3699987,44.4426639 76.634,45 L72.784,45 C72.5053319,44.5013308 72.2230014,43.9953359 71.937,43.482 C71.6509986,42.9686641 71.3576682,42.4700024 71.057,41.986 C70.7563318,41.5019976 70.4593348,41.0436688 70.166,40.611 C69.8726652,40.1783312 69.5793348,39.7860018 69.286,39.434 L67.592,39.434 L67.592,45 L64.16,45 L64.16,29.974 C64.9080037,29.8273326 65.6816627,29.724667 66.481,29.666 C67.2803373,29.607333 67.9953302,29.578 68.626,29.578 L68.626,29.578 Z M68.824,32.504 C68.5746654,32.504 68.351001,32.5113333 68.153,32.526 C67.954999,32.5406667 67.7680009,32.5553333 67.592,32.57 L67.592,36.706 L68.56,36.706 C69.8506731,36.706 70.7746639,36.5446683 71.332,36.222 C71.8893361,35.8993317 72.168,35.3493372 72.168,34.572 C72.168,33.8239963 71.8856695,33.2923349 71.321,32.977 C70.7563305,32.6616651 69.9240055,32.504 68.824,32.504 L68.824,32.504 Z M89.922,29.754 L89.922,32.68 L85.324,32.68 L85.324,45 L81.892,45 L81.892,32.68 L77.294,32.68 L77.294,29.754 L89.922,29.754 Z M98.634,39.874 C98.634,40.6220037 98.5496675,41.3259967 98.381,41.986 C98.2123325,42.6460033 97.9190021,43.2216642 97.501,43.713 C97.0829979,44.2043358 96.5183369,44.5929986 95.807,44.879 C95.0956631,45.1650014 94.1973388,45.308 93.112,45.308 C92.1146617,45.308 91.2566703,45.1870012 90.538,44.945 C89.8193297,44.7029988 89.2253357,44.4206683 88.756,44.098 L89.9,41.436 C90.3253355,41.6853346 90.7799976,41.9053324 91.264,42.096 C91.7480024,42.2866676 92.2759971,42.382 92.848,42.382 C93.6840042,42.382 94.2853315,42.1766687 94.652,41.766 C95.0186685,41.3553313 95.202,40.6660048 95.202,39.698 L95.202,29.754 L98.634,29.754 L98.634,39.874 Z M104.816,37.366 C104.816,38.1140037 104.907666,38.7886637 105.091,39.39 C105.274334,39.9913363 105.538332,40.5083312 105.883,40.941 C106.227668,41.3736688 106.649331,41.7073322 107.148,41.942 C107.646669,42.1766678 108.218663,42.294 108.864,42.294 C109.49467,42.294 110.062997,42.1766678 110.569,41.942 C111.075003,41.7073322 111.500332,41.3736688 111.845,40.941 C112.189668,40.5083312 112.453666,39.9913363 112.637,39.39 C112.820334,38.7886637 112.912,38.1140037 112.912,37.366 C112.912,36.6179963 112.820334,35.9396697 112.637,35.331 C112.453666,34.7223303 112.189668,34.2016688 111.845,33.769 C111.500332,33.3363312 111.075003,33.0026678 110.569,32.768 C110.062997,32.5333322 109.49467,32.416 108.864,32.416 C108.218663,32.416 107.646669,32.5369988 107.148,32.779 C106.649331,33.0210012 106.227668,33.3583312 105.883,33.791 C105.538332,34.2236688 105.274334,34.7443303 105.091,35.353 C104.907666,35.9616697 104.816,36.632663 104.816,37.366 L104.816,37.366 Z M116.454,37.366 C116.454,38.6713399 116.259669,39.818995 115.871,40.809 C115.482331,41.7990049 114.95067,42.6276633 114.276,43.295 C113.60133,43.9623367 112.798338,44.464665 111.867,44.802 C110.935662,45.139335 109.934672,45.308 108.864,45.308 C107.822661,45.308 106.840005,45.139335 105.916,44.802 C104.991995,44.464665 104.185337,43.9623367 103.496,43.295 C102.806663,42.6276633 102.264002,41.7990049 101.868,40.809 C101.471998,39.818995 101.274,38.6713399 101.274,37.366 C101.274,36.0606601 101.479331,34.913005 101.89,33.923 C102.300669,32.9329951 102.85433,32.10067 103.551,31.426 C104.24767,30.75133 105.054329,30.245335 105.971,29.908 C106.887671,29.570665 107.851995,29.402 108.864,29.402 C109.905339,29.402 110.887995,29.570665 111.812,29.908 C112.736005,30.245335 113.542663,30.75133 114.232,31.426 C114.921337,32.10067 115.463998,32.9329951 115.86,33.923 C116.256002,34.913005 116.454,36.0606601 116.454,37.366 L116.454,37.366 Z M124.396,45.198 C123.559996,45.198 122.727671,45.1723336 121.899,45.121 C121.070329,45.0696664 120.208671,44.9486676 119.314,44.758 L119.314,29.974 C120.018004,29.8419993 120.787996,29.7430003 121.624,29.677 C122.460004,29.6109997 123.23733,29.578 123.956,29.578 C124.924005,29.578 125.814996,29.647666 126.629,29.787 C127.443004,29.926334 128.14333,30.164665 128.73,30.502 C129.31667,30.839335 129.774998,31.2829973 130.105,31.833 C130.435002,32.3830028 130.6,33.0613293 130.6,33.868 C130.6,35.0853394 130.013339,36.0459965 128.84,36.75 C129.808005,37.1166685 130.467998,37.6153302 130.82,38.246 C131.172002,38.8766698 131.348,39.587996 131.348,40.38 C131.348,41.9786747 130.765006,43.1813293 129.599,43.988 C128.432994,44.7946707 126.698678,45.198 124.396,45.198 L124.396,45.198 Z M122.658,38.356 L122.658,42.294 C122.907335,42.3233335 123.178665,42.3453333 123.472,42.36 C123.765335,42.3746667 124.087998,42.382 124.44,42.382 C125.466672,42.382 126.29533,42.2353348 126.926,41.942 C127.55667,41.6486652 127.872,41.106004 127.872,40.314 C127.872,39.6099965 127.608003,39.1076682 127.08,38.807 C126.551997,38.5063318 125.796672,38.356 124.814,38.356 L122.658,38.356 Z M122.658,35.738 L124.33,35.738 C125.386005,35.738 126.141331,35.6023347 126.596,35.331 C127.050669,35.0596653 127.278,34.6233363 127.278,34.022 C127.278,33.4059969 127.043336,32.9733346 126.574,32.724 C126.104664,32.4746654 125.415338,32.35 124.506,32.35 C124.212665,32.35 123.897335,32.3536666 123.56,32.361 C123.222665,32.3683334 122.922001,32.3866665 122.658,32.416 L122.658,35.738 Z M139.18,45.198 C138.343996,45.198 137.511671,45.1723336 136.683,45.121 C135.854329,45.0696664 134.992671,44.9486676 134.098,44.758 L134.098,29.974 C134.802004,29.8419993 135.571996,29.7430003 136.408,29.677 C137.244004,29.6109997 138.02133,29.578 138.74,29.578 C139.708005,29.578 140.598996,29.647666 141.413,29.787 C142.227004,29.926334 142.92733,30.164665 143.514,30.502 C144.10067,30.839335 144.558998,31.2829973 144.889,31.833 C145.219002,32.3830028 145.384,33.0613293 145.384,33.868 C145.384,35.0853394 144.797339,36.0459965 143.624,36.75 C144.592005,37.1166685 145.251998,37.6153302 145.604,38.246 C145.956002,38.8766698 146.132,39.587996 146.132,40.38 C146.132,41.9786747 145.549006,43.1813293 144.383,43.988 C143.216994,44.7946707 141.482678,45.198 139.18,45.198 L139.18,45.198 Z M137.442,38.356 L137.442,42.294 C137.691335,42.3233335 137.962665,42.3453333 138.256,42.36 C138.549335,42.3746667 138.871998,42.382 139.224,42.382 C140.250672,42.382 141.07933,42.2353348 141.71,41.942 C142.34067,41.6486652 142.656,41.106004 142.656,40.314 C142.656,39.6099965 142.392003,39.1076682 141.864,38.807 C141.335997,38.5063318 140.580672,38.356 139.598,38.356 L137.442,38.356 Z M137.442,35.738 L139.114,35.738 C140.170005,35.738 140.925331,35.6023347 141.38,35.331 C141.834669,35.0596653 142.062,34.6233363 142.062,34.022 C142.062,33.4059969 141.827336,32.9733346 141.358,32.724 C140.888664,32.4746654 140.199338,32.35 139.29,32.35 C138.996665,32.35 138.681335,32.3536666 138.344,32.361 C138.006665,32.3683334 137.706001,32.3866665 137.442,32.416 L137.442,35.738 Z M151.764,37.366 C151.764,38.1140037 151.855666,38.7886637 152.039,39.39 C152.222334,39.9913363 152.486332,40.5083312 152.831,40.941 C153.175668,41.3736688 153.597331,41.7073322 154.096,41.942 C154.594669,42.1766678 155.166663,42.294 155.812,42.294 C156.44267,42.294 157.010997,42.1766678 157.517,41.942 C158.023003,41.7073322 158.448332,41.3736688 158.793,40.941 C159.137668,40.5083312 159.401666,39.9913363 159.585,39.39 C159.768334,38.7886637 159.86,38.1140037 159.86,37.366 C159.86,36.6179963 159.768334,35.9396697 159.585,35.331 C159.401666,34.7223303 159.137668,34.2016688 158.793,33.769 C158.448332,33.3363312 158.023003,33.0026678 157.517,32.768 C157.010997,32.5333322 156.44267,32.416 155.812,32.416 C155.166663,32.416 154.594669,32.5369988 154.096,32.779 C153.597331,33.0210012 153.175668,33.3583312 152.831,33.791 C152.486332,34.2236688 152.222334,34.7443303 152.039,35.353 C151.855666,35.9616697 151.764,36.632663 151.764,37.366 L151.764,37.366 Z M163.402,37.366 C163.402,38.6713399 163.207669,39.818995 162.819,40.809 C162.430331,41.7990049 161.89867,42.6276633 161.224,43.295 C160.54933,43.9623367 159.746338,44.464665 158.815,44.802 C157.883662,45.139335 156.882672,45.308 155.812,45.308 C154.770661,45.308 153.788005,45.139335 152.864,44.802 C151.939995,44.464665 151.133337,43.9623367 150.444,43.295 C149.754663,42.6276633 149.212002,41.7990049 148.816,40.809 C148.419998,39.818995 148.222,38.6713399 148.222,37.366 C148.222,36.0606601 148.427331,34.913005 148.838,33.923 C149.248669,32.9329951 149.80233,32.10067 150.499,31.426 C151.19567,30.75133 152.002329,30.245335 152.919,29.908 C153.835671,29.570665 154.799995,29.402 155.812,29.402 C156.853339,29.402 157.835995,29.570665 158.76,29.908 C159.684005,30.245335 160.490663,30.75133 161.18,31.426 C161.869337,32.10067 162.411998,32.9329951 162.808,33.923 C163.204002,34.913005 163.402,36.0606601 163.402,37.366 L163.402,37.366 Z M175.92,45 C175.758666,44.4719974 175.579001,43.9293361 175.381,43.372 C175.182999,42.8146639 174.988668,42.2573361 174.798,41.7 L168.858,41.7 C168.667332,42.2573361 168.473001,42.8146639 168.275,43.372 C168.076999,43.9293361 167.897334,44.4719974 167.736,45 L164.172,45 C164.744003,43.3573251 165.286664,41.8393403 165.8,40.446 C166.313336,39.0526597 166.815664,37.7400062 167.307,36.508 C167.798336,35.2759938 168.282331,34.1063389 168.759,32.999 C169.235669,31.8916611 169.730664,30.8100053 170.244,29.754 L173.522,29.754 C174.020669,30.8100053 174.511998,31.8916611 174.996,32.999 C175.480002,34.1063389 175.967664,35.2759938 176.459,36.508 C176.950336,37.7400062 177.452664,39.0526597 177.966,40.446 C178.479336,41.8393403 179.021997,43.3573251 179.594,45 L175.92,45 Z M171.806,33.208 C171.732666,33.4280011 171.622667,33.7286648 171.476,34.11 C171.329333,34.4913352 171.160668,34.9313308 170.97,35.43 C170.779332,35.9286692 170.570334,36.4786637 170.343,37.08 C170.115666,37.6813363 169.884668,38.3119967 169.65,38.972 L173.984,38.972 C173.749332,38.3119967 173.522001,37.6813363 173.302,37.08 C173.081999,36.4786637 172.873001,35.9286692 172.675,35.43 C172.476999,34.9313308 172.304667,34.4913352 172.158,34.11 C172.011333,33.7286648 171.894,33.4280011 171.806,33.208 L171.806,33.208 Z M186.04,29.578 C188.328011,29.578 190.080661,29.9849959 191.298,30.799 C192.515339,31.6130041 193.124,32.8779914 193.124,34.594 C193.124,35.664672 192.878336,36.5336633 192.387,37.201 C191.895664,37.8683367 191.188005,38.3926648 190.264,38.774 C190.572002,39.1553352 190.894665,39.5916642 191.232,40.083 C191.569335,40.5743358 191.902998,41.087664 192.233,41.623 C192.563002,42.158336 192.881998,42.7156638 193.19,43.295 C193.498002,43.8743362 193.783999,44.4426639 194.048,45 L190.198,45 C189.919332,44.5013308 189.637001,43.9953359 189.351,43.482 C189.064999,42.9686641 188.771668,42.4700024 188.471,41.986 C188.170332,41.5019976 187.873335,41.0436688 187.58,40.611 C187.286665,40.1783312 186.993335,39.7860018 186.7,39.434 L185.006,39.434 L185.006,45 L181.574,45 L181.574,29.974 C182.322004,29.8273326 183.095663,29.724667 183.895,29.666 C184.694337,29.607333 185.40933,29.578 186.04,29.578 L186.04,29.578 Z M186.238,32.504 C185.988665,32.504 185.765001,32.5113333 185.567,32.526 C185.368999,32.5406667 185.182001,32.5553333 185.006,32.57 L185.006,36.706 L185.974,36.706 C187.264673,36.706 188.188664,36.5446683 188.746,36.222 C189.303336,35.8993317 189.582,35.3493372 189.582,34.572 C189.582,33.8239963 189.299669,33.2923349 188.735,32.977 C188.170331,32.6616651 187.338005,32.504 186.238,32.504 L186.238,32.504 Z M199.68,42.206 C199.841334,42.2206667 200.028332,42.2316666 200.241,42.239 C200.453668,42.2463334 200.706665,42.25 201,42.25 C202.716009,42.25 203.988329,41.8173377 204.817,40.952 C205.645671,40.0866623 206.06,38.891341 206.06,37.366 C206.06,35.7673253 205.664004,34.5573374 204.872,33.736 C204.079996,32.9146626 202.826009,32.504 201.11,32.504 C200.875332,32.504 200.633335,32.5076666 200.384,32.515 C200.134665,32.5223334 199.900001,32.5406665 199.68,32.57 L199.68,42.206 Z M209.602,37.366 C209.602,38.6860066 209.396669,39.8373284 208.986,40.82 C208.575331,41.8026716 207.992337,42.6166634 207.237,43.262 C206.481663,43.9073366 205.561339,44.3913317 204.476,44.714 C203.390661,45.0366683 202.17334,45.198 200.824,45.198 C200.207997,45.198 199.489337,45.1723336 198.668,45.121 C197.846663,45.0696664 197.040004,44.9633341 196.248,44.802 L196.248,29.952 C197.040004,29.8053326 197.864996,29.7063336 198.723,29.655 C199.581004,29.6036664 200.317997,29.578 200.934,29.578 C202.23934,29.578 203.423661,29.7246652 204.487,30.018 C205.550339,30.3113348 206.46333,30.7733302 207.226,31.404 C207.98867,32.0346698 208.575331,32.8413284 208.986,33.824 C209.396669,34.8066716 209.602,35.9873264 209.602,37.366 L209.602,37.366 Z" id="SMARTJOBBOARD"></path>
            </g>
        </g>
    </g>
</svg>