<?xml version="1.0" encoding="UTF-8" standalone="no"?>
<svg width="969px" height="283px" viewBox="0 0 969 283" version="1.1" xmlns="http://www.w3.org/2000/svg" xmlns:xlink="http://www.w3.org/1999/xlink" xmlns:sketch="http://www.bohemiancoding.com/sketch/ns">
    <!-- Generator: Sketch 3.4.4 (17249) - http://www.bohemiancoding.com/sketch -->
    <title>Group + Rectangle 99 + Path 12 + Path 16 + Group</title>
    <desc>Created with Sketch.</desc>
    <defs>
        <linearGradient x1="3.061617e-15%" y1="50%" x2="100%" y2="50%" id="linearGradient-1">
            <stop stop-color="#FFFFFF" offset="0%"></stop>
            <stop stop-color="#FFFFFF" offset="100%"></stop>
        </linearGradient>
    </defs>
    <g id="Page-1" stroke="none" stroke-width="1" fill="none" fill-rule="evenodd" sketch:type="MSPage">
        <g id="Artboard-2" sketch:type="MSArtboardGroup" transform="translate(-199.000000, -971.000000)">
            <g id="Submit-yor-resume" sketch:type="MSLayerGroup" transform="translate(0.000000, 915.000000)">
                <g id="Group" sketch:type="MSShapeGroup">
                    <g id="Group-+-Rectangle-99-+-Path-12-+-Path-16-+-Group" transform="translate(194.000000, 58.000000)">
                        <g id="Group-+-Rectangle-99" transform="translate(108.500000, 122.000000) rotate(-15.000000) translate(-108.500000, -122.000000) translate(24.000000, 20.000000)">
                            <g id="Group" transform="translate(18.032246, 0.174382)">
                                <path d="M-2.55795385e-13,5.00871088 C-2.55795385e-13,2.24247624 2.23141709,-8.52651283e-14 4.99521068,-8.52651283e-14 L119.004789,-8.52651283e-14 C121.763568,-8.52651283e-14 125.616593,1.5483797 127.615189,3.4626433 L146.384811,21.4402693 C148.381425,23.3526344 150,27.1428382 150,29.9114798 L150,184.991433 C150,187.757588 147.763174,190 145.009232,190 L4.99076843,190 C2.23444314,190 -2.55795385e-13,187.767295 -2.55795385e-13,184.991289 L-2.55795385e-13,5.00871088 Z" id="Rectangle-93" stroke="#FFFFFF" stroke-width="4" opacity="0.4"></path>
                                <rect id="Rectangle-94" fill="#FFFFFF" x="25" y="81" width="99.28416" height="2" rx="100"></rect>
                                <rect id="Rectangle-97-Copy" stroke="#FFFFFF" stroke-width="2" x="25" y="37" width="16" height="16" rx="3"></rect>
                                <rect id="Rectangle-94-Copy" fill="#FFFFFF" x="25" y="94" width="99.28416" height="2" rx="100"></rect>
                                <rect id="Rectangle-94-Copy-2" fill="#FFFFFF" x="25" y="107" width="99.28416" height="2" rx="100"></rect>
                                <rect id="Rectangle-94-Copy-3" fill="#FFFFFF" x="25" y="131" width="99.28416" height="2" rx="100"></rect>
                                <rect id="Rectangle-94-Copy-5" fill="#FFFFFF" x="25" y="144" width="50" height="2" rx="100"></rect>
                                <rect id="Rectangle-94-Copy-4" fill="#FFFFFF" x="55" y="44" width="70" height="2" rx="100"></rect>
                            </g>
                            <path d="M150,195.376953 L150,199.990256 C150,202.204776 148.210933,204 146.007203,204 L3.99279704,204 C1.78763613,204 -1.13686838e-13,202.199586 -1.13686838e-13,200.008205 L-1.13686838e-13,19.9917952 L-1.13686838e-13,19.9917952 C-1.13686838e-13,17.7871876 1.7953286,16 3.99349559,16 L12.9804687,16" id="Rectangle-99" stroke="#FFFFFF" stroke-width="2" opacity="0.3"></path>
                        </g>
                        <g id="Path-12-+-Path-16" transform="translate(140.000000, 0.000000)" stroke-width="4" stroke-linecap="round" stroke-linejoin="round">
                            <path d="M0,241.5 C0,241.5 11.5,278.5 59,278.5 C106.5,278.5 120.5,241.5 162,173 C203.5,104.5 285.5,2.84217094e-14 486.5,0 C607.911563,0 686.634336,30.1010699 728.067874,68.9253752 M728.752861,212.097692 C694.879847,241.298525 639.444137,256.345099 576,252.5 C477,246.5 459,228.5 459,228.5" id="Path-12" stroke="url(#linearGradient-1)" stroke-dasharray="10,10" opacity="0.3"></path>
                            <path d="M464.224359,242.403846 L455.25,229.480769 L469.25,224.096154" id="Path-16" stroke="#fff" opacity="0.3"></path>
                        </g>
                        <g id="Group" transform="translate(874.000000, 142.000000) rotate(-345.000000) translate(-874.000000, -142.000000) translate(786.000000, 78.000000)">
                            <rect id="Rectangle-200" stroke="#fff" stroke-width="2" x="11" y="32" width="152" height="30"></rect>
                            <g transform="translate(0.000000, -0.000000)">
                                <rect id="Rectangle-198" stroke="#FFFFFF" stroke-width="4" opacity="0.4" x="5.91171556e-12" y="-1.64845915e-12" width="176" height="128" rx="8"></rect>
                                <circle id="Oval-22" fill="#fff" cx="11" cy="11" r="3"></circle>
                                <circle id="Oval-22-Copy" fill="#fff" cx="21" cy="11" r="3"></circle>
                                <circle id="Oval-22-Copy-2" fill="#fff" cx="31" cy="11" r="3"></circle>
                                <rect id="Rectangle-199" fill="#fff" x="4" y="19" width="168" height="2"></rect>
                            </g>
                            <g id="Rectangle-200-Copy-+-Rectangle-202-+-Rectangle-202" transform="translate(11.000000, 72.000000)" stroke="#fff" stroke-width="2">
                                <rect id="Rectangle-200-Copy" x="2.50111043e-12" y="-6.25277607e-13" width="28" height="30"></rect>
                                <rect id="Rectangle-202" x="37" y="10" width="108" height="2" rx="100"></rect>
                                <rect id="Rectangle-202" x="37" y="20" width="55" height="2" rx="100"></rect>
                            </g>
                        </g>
                    </g>
                </g>
            </g>
        </g>
    </g>
</svg>