<svg xmlns="http://www.w3.org/2000/svg" xmlns:xlink="http://www.w3.org/1999/xlink" version="1.1" x="0px" y="0px" viewBox="0 0 20 25" enable-background="new 0 0 20 20" xml:space="preserve" style="
"><path xmlns="http://www.w3.org/2000/svg" fill="#b8b8b8" d="M17.876,7.745h-5.69V2.124c0-0.459-0.373-0.833-0.833-0.833H8.508c-0.46,0-0.833,0.373-0.833,0.833v5.621H2.124  c-0.46,0-0.833,0.373-0.833,0.833v2.845c0,0.459,0.373,0.833,0.833,0.833h5.551v5.62c0,0.46,0.373,0.833,0.833,0.833h2.845  c0.46,0,0.833-0.372,0.833-0.833v-5.62h5.69c0.46,0,0.833-0.373,0.833-0.833V8.578C18.708,8.118,18.336,7.745,17.876,7.745z"/></svg>