<svg xmlns="http://www.w3.org/2000/svg" xmlns:xlink="http://www.w3.org/1999/xlink" version="1.1" x="0px" y="0px" viewBox="0 0 100 125" enable-background="new 0 0 100 100" xml:space="preserve"><path fill="#D8D8D8" d="M78.351,20.497h10.133L73.378,5.393v10.131C73.378,18.271,75.604,20.497,78.351,20.497z"/><path fill="#D8D8D8" d="M93.809,31.76H74.507c-6.903,0-12.499-5.598-12.499-12.5V0.052l-0.002-0.004H18.818  c-6.905,0-12.5,5.597-12.5,12.501v74.999c0,6.902,5.595,12.5,12.5,12.5h62.499c6.903,0,12.501-5.598,12.501-12.5V31.762  L93.809,31.76z M23.364,20.43H44.87c3.275,0,5.936,2.655,5.936,5.935c0,3.281-2.659,5.935-5.936,5.935H23.364  c-3.277,0-5.935-2.654-5.935-5.935C17.429,23.084,20.086,20.43,23.364,20.43z M76.699,79.319H23.364  c-3.277,0-5.935-2.655-5.935-5.937c0-3.278,2.657-5.935,5.935-5.935h53.335c3.274,0,5.935,2.656,5.935,5.935  C82.634,76.664,79.976,79.319,76.699,79.319z M76.699,55.58H23.364c-3.277,0-5.935-2.656-5.935-5.936  c0-3.28,2.657-5.935,5.935-5.935h53.335c3.274,0,5.935,2.655,5.935,5.935C82.634,52.924,79.976,55.58,76.699,55.58z"/><text x="0" y="115" fill="#D8D8D8" font-size="5px" font-weight="bold" font-family="'Helvetica Neue', Helvetica, Arial-Unicode, Arial, Sans-serif">Created by Stefan Parnarov</text><text x="0" y="120" fill="#D8D8D8" font-size="5px" font-weight="bold" font-family="'Helvetica Neue', Helvetica, Arial-Unicode, Arial, Sans-serif">from the Noun Project</text></svg>