<svg xmlns="http://www.w3.org/2000/svg" xmlns:xlink="http://www.w3.org/1999/xlink" version="1.1" x="0px" y="0px" viewBox="0 0 100 125" enable-background="new 0 0 100 100" xml:space="preserve"><g><path xmlns="http://www.w3.org/2000/svg" style="fill:rgba(39, 39, 39, 0.5);" d="M55.538,64.975c-1.529,0.707-3.496,1.097-5.538,1.097s-4.009-0.39-5.538-1.097l-18.544-8.579l-3.412,5.041   c-1.418,2.095-0.7,4.678,1.596,5.74l21.723,10.049c2.296,1.062,6.054,1.062,8.35,0l16.483-7.624V57.98L55.538,64.975z"/><path d="M91.382,40.043L53.967,22.734c-1.092-0.505-2.528-0.757-3.967-0.757c-1.438,0-2.875,0.252-3.966,0.757L8.618,40.043   c-2.181,1.009-2.181,2.661,0,3.67l20.255,9.37l17.161,7.938c1.09,0.504,2.528,0.757,3.966,0.757c1.438,0,2.875-0.253,3.967-0.757   l16.008-7.406l-18.04-9.159c-0.66,0.152-1.366,0.238-2.104,0.238c-3.576,0-6.476-1.939-6.476-4.331s2.899-4.332,6.476-4.332   c3.576,0,6.474,1.939,6.474,4.332c0,0.085-0.012,0.168-0.018,0.252l9.75,4.951l10.174,5.165l15.171-7.018   C93.563,42.704,93.563,41.052,91.382,40.043z" style="fill:rgba(39, 39, 39, 0.5);"/><polygon points="74.892,56.591 74.892,67.289 74.892,77.257 81.628,74.174 81.628,53.508  " style="fill:rgba(39, 39, 39, 0.5);"/></g></svg>