<?xml version="1.0" encoding="UTF-8" standalone="no"?>
<svg width="196px" height="17px" viewBox="0 0 196 17" version="1.1" xmlns="http://www.w3.org/2000/svg" xmlns:xlink="http://www.w3.org/1999/xlink">
    <!-- Generator: Sketch 3.7.2 (28276) - http://www.bohemiancoding.com/sketch -->
    <title>SMARTJOBBOARD</title>
    <desc>Created with Sketch.</desc>
    <defs></defs>
    <g id="Page-1" stroke="none" stroke-width="1" fill="none" fill-rule="evenodd">
        <g id="SJB-2" transform="translate(-14.000000, -29.000000)" fill="#222222">
            <g id="Top-menu" transform="translate(14.000000, 17.000000)">
                <path d="M5.918,25.382 C6.40200242,25.382 6.80166509,25.3416671 7.117,25.261 C7.43233491,25.1803329 7.68533238,25.070334 7.876,24.931 C8.06666762,24.791666 8.1986663,24.6266676 8.272,24.436 C8.3453337,24.2453324 8.382,24.0326678 8.382,23.798 C8.382,23.2993308 8.14733568,22.8850016 7.678,22.555 C7.20866432,22.2249983 6.40200572,21.8693352 5.258,21.488 C4.75933084,21.3119991 4.26066916,21.1103345 3.762,20.883 C3.26333084,20.6556655 2.81600198,20.3696684 2.42,20.025 C2.02399802,19.6803316 1.70133458,19.2623358 1.452,18.771 C1.20266542,18.2796642 1.078,17.6820035 1.078,16.978 C1.078,16.2739965 1.20999868,15.6396695 1.474,15.075 C1.73800132,14.5103305 2.11199758,14.030002 2.596,13.634 C3.08000242,13.237998 3.66666322,12.9336677 4.356,12.721 C5.04533678,12.5083323 5.82266234,12.402 6.688,12.402 C7.7146718,12.402 8.60199626,12.5119989 9.35,12.732 C10.0980037,12.9520011 10.7139976,13.1939987 11.198,13.458 L10.208,16.164 C9.78266454,15.9439989 9.30966927,15.7496675 8.789,15.581 C8.26833073,15.4123325 7.641337,15.328 6.908,15.328 C6.08666256,15.328 5.49633513,15.4416655 5.137,15.669 C4.77766487,15.8963345 4.598,16.2446643 4.598,16.714 C4.598,16.9926681 4.66399934,17.2273324 4.796,17.418 C4.92800066,17.6086676 5.11499879,17.7809992 5.357,17.935 C5.59900121,18.0890008 5.87766509,18.2283327 6.193,18.353 C6.50833491,18.4776673 6.85666476,18.6059993 7.238,18.738 C8.03000396,19.0313348 8.7193304,19.3209986 9.306,19.607 C9.8926696,19.8930014 10.3803314,20.2266648 10.769,20.608 C11.1576686,20.9893352 11.4473324,21.4366641 11.638,21.95 C11.8286676,22.4633359 11.924,23.086663 11.924,23.82 C11.924,25.2426738 11.4253383,26.3463294 10.428,27.131 C9.43066168,27.9156706 7.92734338,28.308 5.918,28.308 C5.24332996,28.308 4.63466938,28.2676671 4.092,28.187 C3.54933062,28.1063329 3.06900209,28.0073339 2.651,27.89 C2.23299791,27.7726661 1.87366817,27.6480007 1.573,27.516 C1.27233183,27.3839993 1.01933436,27.2593339 0.814,27.142 L1.782,24.414 C2.23666894,24.6633346 2.79766333,24.886999 3.465,25.085 C4.13233667,25.283001 4.94999516,25.382 5.918,25.382 L5.918,25.382 Z M18.612,12.754 C18.8760013,13.2380024 19.1803316,13.8356631 19.525,14.547 C19.8696684,15.2583369 20.2289981,16.0283292 20.603,16.857 C20.9770019,17.6856708 21.3473315,18.5326623 21.714,19.398 C22.0806685,20.2633377 22.4253317,21.0773295 22.748,21.84 C23.0706683,21.0773295 23.4153315,20.2633377 23.782,19.398 C24.1486685,18.5326623 24.5189981,17.6856708 24.893,16.857 C25.2670019,16.0283292 25.6263316,15.2583369 25.971,14.547 C26.3156684,13.8356631 26.6199987,13.2380024 26.884,12.754 L30.008,12.754 C30.1546674,13.7660051 30.2903327,14.8989937 30.415,16.153 C30.5396673,17.4070063 30.6496662,18.7123266 30.745,20.069 C30.8403338,21.4256734 30.9283329,22.7859932 31.009,24.15 C31.0896671,25.5140068 31.159333,26.7973273 31.218,28 L27.874,28 C27.8299998,26.5186593 27.7713337,24.9053421 27.698,23.16 C27.6246663,21.4146579 27.5146674,19.6546755 27.368,17.88 C27.1039987,18.4960031 26.8106683,19.1779963 26.488,19.926 C26.1653317,20.6740037 25.8463349,21.4219963 25.531,22.17 C25.2156651,22.9180037 24.9113348,23.6329966 24.618,24.315 C24.3246652,24.9970034 24.0753344,25.5799976 23.87,26.064 L21.472,26.064 C21.2666656,25.5799976 21.0173348,24.9970034 20.724,24.315 C20.4306652,23.6329966 20.1263349,22.9180037 19.811,22.17 C19.4956651,21.4219963 19.1766683,20.6740037 18.854,19.926 C18.5313317,19.1779963 18.2380013,18.4960031 17.974,17.88 C17.8273326,19.6546755 17.7173337,21.4146579 17.644,23.16 C17.5706663,24.9053421 17.5120002,26.5186593 17.468,28 L14.124,28 C14.182667,26.7973273 14.2523329,25.5140068 14.333,24.15 C14.4136671,22.7859932 14.5016662,21.4256734 14.597,20.069 C14.6923338,18.7123266 14.8023327,17.4070063 14.927,16.153 C15.0516673,14.8989937 15.1873326,13.7660051 15.334,12.754 L18.612,12.754 Z M44.506,28 C44.3446659,27.4719974 44.165001,26.9293361 43.967,26.372 C43.768999,25.8146639 43.5746676,25.2573361 43.384,24.7 L37.444,24.7 C37.2533324,25.2573361 37.059001,25.8146639 36.861,26.372 C36.662999,26.9293361 36.4833341,27.4719974 36.322,28 L32.758,28 C33.3300029,26.3573251 33.8726641,24.8393403 34.386,23.446 C34.8993359,22.0526597 35.4016642,20.7400062 35.893,19.508 C36.3843358,18.2759938 36.868331,17.1063389 37.345,15.999 C37.8216691,14.8916611 38.3166641,13.8100053 38.83,12.754 L42.108,12.754 C42.6066692,13.8100053 43.0979976,14.8916611 43.582,15.999 C44.0660024,17.1063389 44.5536642,18.2759938 45.045,19.508 C45.5363358,20.7400062 46.0386641,22.0526597 46.552,23.446 C47.0653359,24.8393403 47.6079971,26.3573251 48.18,28 L44.506,28 Z M40.392,16.208 C40.3186663,16.4280011 40.2086674,16.7286648 40.062,17.11 C39.9153326,17.4913352 39.7466676,17.9313308 39.556,18.43 C39.3653324,18.9286692 39.1563345,19.4786637 38.929,20.08 C38.7016655,20.6813363 38.4706678,21.3119967 38.236,21.972 L42.57,21.972 C42.3353322,21.3119967 42.1080011,20.6813363 41.888,20.08 C41.6679989,19.4786637 41.459001,18.9286692 41.261,18.43 C41.062999,17.9313308 40.8906674,17.4913352 40.744,17.11 C40.5973326,16.7286648 40.4800004,16.4280011 40.392,16.208 L40.392,16.208 Z M54.626,12.578 C56.9140114,12.578 58.6666606,12.9849959 59.884,13.799 C61.1013394,14.6130041 61.71,15.8779914 61.71,17.594 C61.71,18.664672 61.4643358,19.5336633 60.973,20.201 C60.4816642,20.8683367 59.7740046,21.3926648 58.85,21.774 C59.1580015,22.1553352 59.480665,22.5916642 59.818,23.083 C60.155335,23.5743358 60.4889983,24.087664 60.819,24.623 C61.1490017,25.158336 61.4679985,25.7156638 61.776,26.295 C62.0840015,26.8743362 62.3699987,27.4426639 62.634,28 L58.784,28 C58.5053319,27.5013308 58.2230014,26.9953359 57.937,26.482 C57.6509986,25.9686641 57.3576682,25.4700024 57.057,24.986 C56.7563318,24.5019976 56.4593348,24.0436688 56.166,23.611 C55.8726652,23.1783312 55.5793348,22.7860018 55.286,22.434 L53.592,22.434 L53.592,28 L50.16,28 L50.16,12.974 C50.9080037,12.8273326 51.6816627,12.724667 52.481,12.666 C53.2803373,12.607333 53.9953302,12.578 54.626,12.578 L54.626,12.578 Z M54.824,15.504 C54.5746654,15.504 54.351001,15.5113333 54.153,15.526 C53.954999,15.5406667 53.7680009,15.5553333 53.592,15.57 L53.592,19.706 L54.56,19.706 C55.8506731,19.706 56.7746639,19.5446683 57.332,19.222 C57.8893361,18.8993317 58.168,18.3493372 58.168,17.572 C58.168,16.8239963 57.8856695,16.2923349 57.321,15.977 C56.7563305,15.6616651 55.9240055,15.504 54.824,15.504 L54.824,15.504 Z M75.922,12.754 L75.922,15.68 L71.324,15.68 L71.324,28 L67.892,28 L67.892,15.68 L63.294,15.68 L63.294,12.754 L75.922,12.754 Z M84.634,22.874 C84.634,23.6220037 84.5496675,24.3259967 84.381,24.986 C84.2123325,25.6460033 83.9190021,26.2216642 83.501,26.713 C83.0829979,27.2043358 82.5183369,27.5929986 81.807,27.879 C81.0956631,28.1650014 80.1973388,28.308 79.112,28.308 C78.1146617,28.308 77.2566703,28.1870012 76.538,27.945 C75.8193297,27.7029988 75.2253357,27.4206683 74.756,27.098 L75.9,24.436 C76.3253355,24.6853346 76.7799976,24.9053324 77.264,25.096 C77.7480024,25.2866676 78.2759971,25.382 78.848,25.382 C79.6840042,25.382 80.2853315,25.1766687 80.652,24.766 C81.0186685,24.3553313 81.202,23.6660048 81.202,22.698 L81.202,12.754 L84.634,12.754 L84.634,22.874 Z M90.816,20.366 C90.816,21.1140037 90.9076657,21.7886637 91.091,22.39 C91.2743342,22.9913363 91.5383316,23.5083312 91.883,23.941 C92.2276684,24.3736688 92.6493308,24.7073322 93.148,24.942 C93.6466692,25.1766678 94.2186634,25.294 94.864,25.294 C95.4946698,25.294 96.0629975,25.1766678 96.569,24.942 C97.0750025,24.7073322 97.5003316,24.3736688 97.845,23.941 C98.1896684,23.5083312 98.4536657,22.9913363 98.637,22.39 C98.8203343,21.7886637 98.912,21.1140037 98.912,20.366 C98.912,19.6179963 98.8203343,18.9396697 98.637,18.331 C98.4536657,17.7223303 98.1896684,17.2016688 97.845,16.769 C97.5003316,16.3363312 97.0750025,16.0026678 96.569,15.768 C96.0629975,15.5333322 95.4946698,15.416 94.864,15.416 C94.2186634,15.416 93.6466692,15.5369988 93.148,15.779 C92.6493308,16.0210012 92.2276684,16.3583312 91.883,16.791 C91.5383316,17.2236688 91.2743342,17.7443303 91.091,18.353 C90.9076657,18.9616697 90.816,19.632663 90.816,20.366 L90.816,20.366 Z M102.454,20.366 C102.454,21.6713399 102.259669,22.8189951 101.871,23.809 C101.482331,24.799005 100.95067,25.6276633 100.276,26.295 C99.60133,26.9623367 98.798338,27.464665 97.867,27.802 C96.935662,28.139335 95.934672,28.308 94.864,28.308 C93.8226615,28.308 92.8400046,28.139335 91.916,27.802 C90.9919954,27.464665 90.1853368,26.9623367 89.496,26.295 C88.8066632,25.6276633 88.264002,24.799005 87.868,23.809 C87.471998,22.8189951 87.274,21.6713399 87.274,20.366 C87.274,19.0606601 87.4793313,17.913005 87.89,16.923 C88.3006687,15.9329951 88.8543298,15.10067 89.551,14.426 C90.2476701,13.75133 91.0543287,13.245335 91.971,12.908 C92.8876712,12.570665 93.8519949,12.402 94.864,12.402 C95.9053385,12.402 96.8879954,12.570665 97.812,12.908 C98.7360046,13.245335 99.5426632,13.75133 100.232,14.426 C100.921337,15.10067 101.463998,15.9329951 101.86,16.923 C102.256002,17.913005 102.454,19.0606601 102.454,20.366 L102.454,20.366 Z M110.396,28.198 C109.559996,28.198 108.727671,28.1723336 107.899,28.121 C107.070329,28.0696664 106.208671,27.9486676 105.314,27.758 L105.314,12.974 C106.018004,12.8419993 106.787996,12.7430003 107.624,12.677 C108.460004,12.6109997 109.23733,12.578 109.956,12.578 C110.924005,12.578 111.814996,12.647666 112.629,12.787 C113.443004,12.926334 114.14333,13.164665 114.73,13.502 C115.31667,13.839335 115.774998,14.2829973 116.105,14.833 C116.435002,15.3830027 116.6,16.0613293 116.6,16.868 C116.6,18.0853394 116.013339,19.0459965 114.84,19.75 C115.808005,20.1166685 116.467998,20.6153302 116.82,21.246 C117.172002,21.8766698 117.348,22.587996 117.348,23.38 C117.348,24.9786747 116.765006,26.1813293 115.599,26.988 C114.432994,27.7946707 112.698678,28.198 110.396,28.198 L110.396,28.198 Z M108.658,21.356 L108.658,25.294 C108.907335,25.3233335 109.178665,25.3453333 109.472,25.36 C109.765335,25.3746667 110.087998,25.382 110.44,25.382 C111.466672,25.382 112.29533,25.2353348 112.926,24.942 C113.55667,24.6486652 113.872,24.106004 113.872,23.314 C113.872,22.6099965 113.608003,22.1076682 113.08,21.807 C112.551997,21.5063318 111.796672,21.356 110.814,21.356 L108.658,21.356 Z M108.658,18.738 L110.33,18.738 C111.386005,18.738 112.141331,18.6023347 112.596,18.331 C113.050669,18.0596653 113.278,17.6233363 113.278,17.022 C113.278,16.4059969 113.043336,15.9733346 112.574,15.724 C112.104664,15.4746654 111.415338,15.35 110.506,15.35 C110.212665,15.35 109.897335,15.3536666 109.56,15.361 C109.222665,15.3683334 108.922001,15.3866665 108.658,15.416 L108.658,18.738 Z M125.18,28.198 C124.343996,28.198 123.511671,28.1723336 122.683,28.121 C121.854329,28.0696664 120.992671,27.9486676 120.098,27.758 L120.098,12.974 C120.802004,12.8419993 121.571996,12.7430003 122.408,12.677 C123.244004,12.6109997 124.02133,12.578 124.74,12.578 C125.708005,12.578 126.598996,12.647666 127.413,12.787 C128.227004,12.926334 128.92733,13.164665 129.514,13.502 C130.10067,13.839335 130.558998,14.2829973 130.889,14.833 C131.219002,15.3830027 131.384,16.0613293 131.384,16.868 C131.384,18.0853394 130.797339,19.0459965 129.624,19.75 C130.592005,20.1166685 131.251998,20.6153302 131.604,21.246 C131.956002,21.8766698 132.132,22.587996 132.132,23.38 C132.132,24.9786747 131.549006,26.1813293 130.383,26.988 C129.216994,27.7946707 127.482678,28.198 125.18,28.198 L125.18,28.198 Z M123.442,21.356 L123.442,25.294 C123.691335,25.3233335 123.962665,25.3453333 124.256,25.36 C124.549335,25.3746667 124.871998,25.382 125.224,25.382 C126.250672,25.382 127.07933,25.2353348 127.71,24.942 C128.34067,24.6486652 128.656,24.106004 128.656,23.314 C128.656,22.6099965 128.392003,22.1076682 127.864,21.807 C127.335997,21.5063318 126.580672,21.356 125.598,21.356 L123.442,21.356 Z M123.442,18.738 L125.114,18.738 C126.170005,18.738 126.925331,18.6023347 127.38,18.331 C127.834669,18.0596653 128.062,17.6233363 128.062,17.022 C128.062,16.4059969 127.827336,15.9733346 127.358,15.724 C126.888664,15.4746654 126.199338,15.35 125.29,15.35 C124.996665,15.35 124.681335,15.3536666 124.344,15.361 C124.006665,15.3683334 123.706001,15.3866665 123.442,15.416 L123.442,18.738 Z M137.764,20.366 C137.764,21.1140037 137.855666,21.7886637 138.039,22.39 C138.222334,22.9913363 138.486332,23.5083312 138.831,23.941 C139.175668,24.3736688 139.597331,24.7073322 140.096,24.942 C140.594669,25.1766678 141.166663,25.294 141.812,25.294 C142.44267,25.294 143.010997,25.1766678 143.517,24.942 C144.023003,24.7073322 144.448332,24.3736688 144.793,23.941 C145.137668,23.5083312 145.401666,22.9913363 145.585,22.39 C145.768334,21.7886637 145.86,21.1140037 145.86,20.366 C145.86,19.6179963 145.768334,18.9396697 145.585,18.331 C145.401666,17.7223303 145.137668,17.2016688 144.793,16.769 C144.448332,16.3363312 144.023003,16.0026678 143.517,15.768 C143.010997,15.5333322 142.44267,15.416 141.812,15.416 C141.166663,15.416 140.594669,15.5369988 140.096,15.779 C139.597331,16.0210012 139.175668,16.3583312 138.831,16.791 C138.486332,17.2236688 138.222334,17.7443303 138.039,18.353 C137.855666,18.9616697 137.764,19.632663 137.764,20.366 L137.764,20.366 Z M149.402,20.366 C149.402,21.6713399 149.207669,22.8189951 148.819,23.809 C148.430331,24.799005 147.89867,25.6276633 147.224,26.295 C146.54933,26.9623367 145.746338,27.464665 144.815,27.802 C143.883662,28.139335 142.882672,28.308 141.812,28.308 C140.770661,28.308 139.788005,28.139335 138.864,27.802 C137.939995,27.464665 137.133337,26.9623367 136.444,26.295 C135.754663,25.6276633 135.212002,24.799005 134.816,23.809 C134.419998,22.8189951 134.222,21.6713399 134.222,20.366 C134.222,19.0606601 134.427331,17.913005 134.838,16.923 C135.248669,15.9329951 135.80233,15.10067 136.499,14.426 C137.19567,13.75133 138.002329,13.245335 138.919,12.908 C139.835671,12.570665 140.799995,12.402 141.812,12.402 C142.853339,12.402 143.835995,12.570665 144.76,12.908 C145.684005,13.245335 146.490663,13.75133 147.18,14.426 C147.869337,15.10067 148.411998,15.9329951 148.808,16.923 C149.204002,17.913005 149.402,19.0606601 149.402,20.366 L149.402,20.366 Z M161.92,28 C161.758666,27.4719974 161.579001,26.9293361 161.381,26.372 C161.182999,25.8146639 160.988668,25.2573361 160.798,24.7 L154.858,24.7 C154.667332,25.2573361 154.473001,25.8146639 154.275,26.372 C154.076999,26.9293361 153.897334,27.4719974 153.736,28 L150.172,28 C150.744003,26.3573251 151.286664,24.8393403 151.8,23.446 C152.313336,22.0526597 152.815664,20.7400062 153.307,19.508 C153.798336,18.2759938 154.282331,17.1063389 154.759,15.999 C155.235669,14.8916611 155.730664,13.8100053 156.244,12.754 L159.522,12.754 C160.020669,13.8100053 160.511998,14.8916611 160.996,15.999 C161.480002,17.1063389 161.967664,18.2759938 162.459,19.508 C162.950336,20.7400062 163.452664,22.0526597 163.966,23.446 C164.479336,24.8393403 165.021997,26.3573251 165.594,28 L161.92,28 Z M157.806,16.208 C157.732666,16.4280011 157.622667,16.7286648 157.476,17.11 C157.329333,17.4913352 157.160668,17.9313308 156.97,18.43 C156.779332,18.9286692 156.570334,19.4786637 156.343,20.08 C156.115666,20.6813363 155.884668,21.3119967 155.65,21.972 L159.984,21.972 C159.749332,21.3119967 159.522001,20.6813363 159.302,20.08 C159.081999,19.4786637 158.873001,18.9286692 158.675,18.43 C158.476999,17.9313308 158.304667,17.4913352 158.158,17.11 C158.011333,16.7286648 157.894,16.4280011 157.806,16.208 L157.806,16.208 Z M172.04,12.578 C174.328011,12.578 176.080661,12.9849959 177.298,13.799 C178.515339,14.6130041 179.124,15.8779914 179.124,17.594 C179.124,18.664672 178.878336,19.5336633 178.387,20.201 C177.895664,20.8683367 177.188005,21.3926648 176.264,21.774 C176.572002,22.1553352 176.894665,22.5916642 177.232,23.083 C177.569335,23.5743358 177.902998,24.087664 178.233,24.623 C178.563002,25.158336 178.881998,25.7156638 179.19,26.295 C179.498002,26.8743362 179.783999,27.4426639 180.048,28 L176.198,28 C175.919332,27.5013308 175.637001,26.9953359 175.351,26.482 C175.064999,25.9686641 174.771668,25.4700024 174.471,24.986 C174.170332,24.5019976 173.873335,24.0436688 173.58,23.611 C173.286665,23.1783312 172.993335,22.7860018 172.7,22.434 L171.006,22.434 L171.006,28 L167.574,28 L167.574,12.974 C168.322004,12.8273326 169.095663,12.724667 169.895,12.666 C170.694337,12.607333 171.40933,12.578 172.04,12.578 L172.04,12.578 Z M172.238,15.504 C171.988665,15.504 171.765001,15.5113333 171.567,15.526 C171.368999,15.5406667 171.182001,15.5553333 171.006,15.57 L171.006,19.706 L171.974,19.706 C173.264673,19.706 174.188664,19.5446683 174.746,19.222 C175.303336,18.8993317 175.582,18.3493372 175.582,17.572 C175.582,16.8239963 175.299669,16.2923349 174.735,15.977 C174.170331,15.6616651 173.338006,15.504 172.238,15.504 L172.238,15.504 Z M185.68,25.206 C185.841334,25.2206667 186.028332,25.2316666 186.241,25.239 C186.453668,25.2463334 186.706665,25.25 187,25.25 C188.716009,25.25 189.988329,24.8173377 190.817,23.952 C191.645671,23.0866623 192.06,21.891341 192.06,20.366 C192.06,18.7673253 191.664004,17.5573374 190.872,16.736 C190.079996,15.9146626 188.826009,15.504 187.11,15.504 C186.875332,15.504 186.633335,15.5076666 186.384,15.515 C186.134665,15.5223334 185.900001,15.5406665 185.68,15.57 L185.68,25.206 Z M195.602,20.366 C195.602,21.6860066 195.396669,22.8373284 194.986,23.82 C194.575331,24.8026716 193.992337,25.6166634 193.237,26.262 C192.481663,26.9073366 191.561339,27.3913317 190.476,27.714 C189.390661,28.0366683 188.17334,28.198 186.824,28.198 C186.207997,28.198 185.489337,28.1723336 184.668,28.121 C183.846663,28.0696664 183.040004,27.9633341 182.248,27.802 L182.248,12.952 C183.040004,12.8053326 183.864996,12.7063336 184.723,12.655 C185.581004,12.6036664 186.317997,12.578 186.934,12.578 C188.23934,12.578 189.423661,12.7246652 190.487,13.018 C191.550339,13.3113348 192.46333,13.7733302 193.226,14.404 C193.98867,15.0346698 194.575331,15.8413284 194.986,16.824 C195.396669,17.8066716 195.602,18.9873264 195.602,20.366 L195.602,20.366 Z" id="SMARTJOBBOARD"></path>
            </g>
        </g>
    </g>
</svg>