<?xml version="1.0" encoding="utf-8"?>
<!DOCTYPE svg PUBLIC "-//W3C//DTD SVG 1.1//EN" "http://www.w3.org/Graphics/SVG/1.1/DTD/svg11.dtd">
<svg version="1.1" id="preloader" xmlns="http://www.w3.org/2000/svg" xmlns:xlink="http://www.w3.org/1999/xlink" x="0px" y="0px"
	 viewBox="0.4 0.7 29.6 29.6" enable-background="new 0.4 0.7 29.6 29.6" xml:space="preserve">
<path fill="#858A8D" d="M15.2,0.7L15.2,0.7c1.2,0,2.1,0.9,2.1,2.1l0,0c0,1.2-0.9,2.1-2.1,2.1l0,0c-1.2,0-2.1-0.9-2.1-2.1l0,0
	C13.1,1.7,14,0.7,15.2,0.7z"/>
<path opacity="0.9" fill="#858A8D" enable-background="new    " d="M22.6,2.7L22.6,2.7c1,0.6,1.4,1.9,0.8,2.9l0,0
	c-0.6,1-1.9,1.4-2.9,0.8l0,0c-1-0.6-1.4-1.9-0.8-2.9l0,0C20.3,2.5,21.6,2.1,22.6,2.7z"/>
<path opacity="0.8" fill="#858A8D" enable-background="new    " d="M28,8.1L28,8.1c0.6,1,0.2,2.3-0.8,2.9l0,0
	c-1,0.6-2.3,0.2-2.9-0.8l0,0c-0.6-1-0.2-2.3,0.8-2.9l0,0C26.1,6.7,27.4,7.1,28,8.1z"/>
<path opacity="0.7" fill="#858A8D" enable-background="new    " d="M30,15.5L30,15.5c0,1.2-0.9,2.1-2.1,2.1l0,0
	c-1.2,0-2.1-0.9-2.1-2.1l0,0c0-1.2,0.9-2.1,2.1-2.1l0,0C29,13.4,30,14.4,30,15.5z"/>
<path opacity="0.65" fill="#858A8D" enable-background="new    " d="M28,22.9L28,22.9c-0.6,1-1.9,1.4-2.9,0.8l0,0
	c-1-0.6-1.4-1.9-0.8-2.9l0,0c0.6-1,1.9-1.4,2.9-0.8l0,0C28.2,20.6,28.6,21.9,28,22.9z"/>
<path opacity="0.6" fill="#858A8D" enable-background="new    " d="M22.6,28.3L22.6,28.3c-1,0.6-2.3,0.2-2.9-0.8l0,0
	c-0.6-1-0.2-2.3,0.8-2.9l0,0c1-0.6,2.3-0.2,2.9,0.8l0,0C24,26.5,23.6,27.8,22.6,28.3z"/>
<path opacity="0.5" fill="#858A8D" enable-background="new    " d="M15.2,30.3L15.2,30.3c-1.2,0-2.1-0.9-2.1-2.1l0,0
	c0-1.2,0.9-2.1,2.1-2.1l0,0c1.2,0,2.1,0.9,2.1,2.1l0,0C17.3,29.4,16.3,30.3,15.2,30.3z"/>
<path opacity="0.45" fill="#858A8D" enable-background="new    " d="M7.8,28.3L7.8,28.3c-1-0.6-1.4-1.9-0.8-2.9l0,0
	c0.6-1,1.9-1.4,2.9-0.8l0,0c1,0.6,1.4,1.9,0.8,2.9l0,0C10.1,28.6,8.8,28.9,7.8,28.3z"/>
<path opacity="0.3" fill="#858A8D" enable-background="new    " d="M2.4,22.9L2.4,22.9c-0.6-1-0.2-2.3,0.8-2.9l0,0
	c1-0.6,2.3-0.2,2.9,0.8l0,0c0.6,1,0.2,2.3-0.8,2.9l0,0C4.2,24.3,2.9,24,2.4,22.9z"/>
<path opacity="0.25" fill="#858A8D" enable-background="new    " d="M0.4,15.5L0.4,15.5c0-1.2,0.9-2.1,2.1-2.1l0,0
	c1.2,0,2.1,0.9,2.1,2.1l0,0c0,1.2-0.9,2.1-2.1,2.1l0,0C1.3,17.6,0.4,16.7,0.4,15.5z"/>
<path opacity="0.2" fill="#858A8D" enable-background="new    " d="M2.4,8.1L2.4,8.1c0.6-1,1.9-1.4,2.9-0.8l0,0
	c1,0.6,1.4,1.9,0.8,2.9l0,0c-0.6,1-1.9,1.4-2.9,0.8l0,0C2.1,10.4,1.8,9.1,2.4,8.1z"/>
<path opacity="0.1" fill="#858A8D" enable-background="new    " d="M7.8,2.7L7.8,2.7c1-0.6,2.3-0.2,2.9,0.8l0,0
	c0.6,1,0.2,2.3-0.8,2.9l0,0C8.9,7,7.6,6.6,7,5.6l0,0C6.4,4.6,6.7,3.3,7.8,2.7z"/>
</svg>
