<?xml version="1.0" encoding="UTF-8" standalone="no"?>
<svg width="20px" height="13px" viewBox="0 0 20 13" version="1.1" xmlns="http://www.w3.org/2000/svg" xmlns:xlink="http://www.w3.org/1999/xlink" xmlns:sketch="http://www.bohemiancoding.com/sketch/ns">
    <!-- Generator: Sketch 3.5.2 (25235) - http://www.bohemiancoding.com/sketch -->
    <title>Rectangle 337</title>
    <desc>Created with Sketch.</desc>
    <defs></defs>
    <g id="Page-1" stroke="none" stroke-width="1" fill="none" fill-rule="evenodd" sketch:type="MSPage">
        <g id="Post-a-job" sketch:type="MSArtboardGroup" transform="translate(-504.000000, -888.000000)" fill="#000000" opacity="0.7">
            <g id="Field-+-Rectangle-447-Copy-+-Group" sketch:type="MSLayerGroup" transform="translate(318.000000, 231.000000)">
                <g id="Group" transform="translate(0.000000, 318.000000)" sketch:type="MSShapeGroup">
                    <g id="Rectangle-330-+-Job-Description" transform="translate(0.000000, 297.000000)">
                        <g id="Rectangle-330" transform="translate(0.000000, 29.000000)">
                            <g id="Rectangle-330-+-Group">
                                <g id="Group" transform="translate(21.000000, 12.000000)">
                                    <path d="M170.794752,1.70454545 L184.566146,1.70454545 L184.566146,3.40909091 L170.794752,3.40909091 L170.794752,1.70454545 Z M170.794752,6.81818182 L184.566146,6.81818182 L184.566146,8.52272727 L170.794752,8.52272727 L170.794752,6.81818182 Z M170.794752,11.9318182 L184.566146,11.9318182 L184.566146,13.6363636 L170.794752,13.6363636 L170.794752,11.9318182 Z M165.256738,1.70454545 L169.073327,1.70454545 L169.073327,3.40909091 L165.256738,3.40909091 L165.256738,1.70454545 Z M165.256738,6.81818182 L169.073327,6.81818182 L169.073327,8.52272727 L165.256738,8.52272727 L165.256738,6.81818182 Z M165.256738,11.9318182 L169.073327,11.9318182 L169.073327,13.6363636 L165.256738,13.6363636 L165.256738,11.9318182 Z" id="Rectangle-337"></path>
                                </g>
                            </g>
                        </g>
                    </g>
                </g>
            </g>
        </g>
    </g>
</svg>