<?xml version="1.0" encoding="UTF-8" standalone="no"?>
<svg width="9px" height="15px" viewBox="0 0 9 15" version="1.1" xmlns="http://www.w3.org/2000/svg" xmlns:xlink="http://www.w3.org/1999/xlink" xmlns:sketch="http://www.bohemiancoding.com/sketch/ns">
    <!-- Generator: Sketch 3.5.2 (25235) - http://www.bohemiancoding.com/sketch -->
    <title>U</title>
    <desc>Created with Sketch.</desc>
    <defs></defs>
    <g id="Page-1" stroke="none" stroke-width="1" fill="none" fill-rule="evenodd" sketch:type="MSPage">
        <g id="Post-a-job" sketch:type="MSArtboardGroup" transform="translate(-406.000000, -887.000000)" fill="#000000" opacity="0.7">
            <g id="Field-+-Rectangle-447-Copy-+-Group" sketch:type="MSLayerGroup" transform="translate(318.000000, 231.000000)">
                <g id="Group" transform="translate(0.000000, 318.000000)" sketch:type="MSShapeGroup">
                    <g id="Rectangle-330-+-Job-Description" transform="translate(0.000000, 297.000000)">
                        <g id="Rectangle-330" transform="translate(0.000000, 29.000000)">
                            <g id="Rectangle-330-+-Group">
                                <g id="Group" transform="translate(21.000000, 12.000000)">
                                    <path d="M74.8664249,8.98469556 C74.5739728,9.51814072 74.148128,9.93472973 73.5888776,10.2344751 C73.0296271,10.5342205 72.3600759,10.6840909 71.5802037,10.6840909 C70.400134,10.6840909 69.4894417,10.3614884 68.8480994,9.71627383 C68.2067572,9.07105922 67.8860909,8.20993925 67.8860909,7.13288808 L67.8860909,0 L69.3483439,0 L69.3483439,7.02619959 C69.3483439,7.83906839 69.5330477,8.44871085 69.9024608,8.85514525 C70.2718739,9.26157965 70.831116,9.4647938 71.5802037,9.4647938 C72.3395529,9.4647938 72.9039256,9.26411983 73.2733388,8.86276585 C73.6427519,8.46141188 73.8274557,7.84922925 73.8274557,7.02619959 L73.8274557,0 L75.3051008,0 L75.3051008,7.13288808 C75.3051008,7.83398742 75.158877,8.45125041 74.8664249,8.98469556 Z M67.1355499,12.3886364 L75.7426717,12.3886364 L75.7426717,14.0931818 L67.1355499,14.0931818 L67.1355499,12.3886364 Z" id="U"></path>
                                </g>
                            </g>
                        </g>
                    </g>
                </g>
            </g>
        </g>
    </g>
</svg>