<?xml version="1.0" encoding="UTF-8" standalone="no"?>
<svg width="11px" height="15px" viewBox="0 0 11 15" version="1.1" xmlns="http://www.w3.org/2000/svg" xmlns:xlink="http://www.w3.org/1999/xlink" xmlns:sketch="http://www.bohemiancoding.com/sketch/ns">
    <!-- Generator: Sketch 3.5.2 (25235) - http://www.bohemiancoding.com/sketch -->
    <title>B</title>
    <desc>Created with Sketch.</desc>
    <defs></defs>
    <g id="Page-1" stroke="none" stroke-width="1" fill="none" fill-rule="evenodd" sketch:type="MSPage">
        <g id="Post-a-job" sketch:type="MSArtboardGroup" transform="translate(-339.000000, -887.000000)" fill="#000000" opacity="0.7">
            <g id="Field-+-Rectangle-447-Copy-+-Group" sketch:type="MSLayerGroup" transform="translate(318.000000, 231.000000)">
                <g id="Group" transform="translate(0.000000, 318.000000)" sketch:type="MSShapeGroup">
                    <g id="Rectangle-330-+-Job-Description" transform="translate(0.000000, 297.000000)">
                        <g id="Rectangle-330" transform="translate(0.000000, 29.000000)">
                            <g id="Rectangle-330-+-Group">
                                <g id="Group" transform="translate(21.000000, 12.000000)">
                                    <path d="M9.36799134,7.69090909 C9.96705001,8.2090935 10.2665749,8.99999468 10.2665749,10.0636364 C10.2665749,11.536371 9.74326709,12.5829514 8.69663584,13.2034091 C7.6500046,13.8238667 6.18336572,14.1340909 4.29667519,14.1340909 L0,14.1340909 L0,0 L3.7389337,0 C7.67757232,-3.02788098e-15 9.64686209,1.199988 9.64686209,3.6 C9.64686209,4.43182234 9.39209383,5.11022465 8.88254968,5.63522727 C8.37300552,6.1602299 7.74641332,6.49772652 7.00275428,6.64772727 C7.9805282,6.82500089 8.76893267,7.17272468 9.36799134,7.69090909 L9.36799134,7.69090909 Z M2.72673618,5.80909091 L4.39996065,5.80909091 C5.15739116,5.80909091 5.75644084,5.64204713 6.19712768,5.30795455 C6.63781452,4.97386197 6.85815463,4.47954873 6.85815463,3.825 C6.85815463,3.14317841 6.62748608,2.66591045 6.16614204,2.39318182 C5.70479801,2.12045318 4.98524982,1.98409091 4.0074759,1.98409091 L2.72673618,1.98409091 L2.72673618,5.80909091 Z M6.62059807,11.6590909 C7.15079942,11.3590894 7.41589612,10.793186 7.41589612,9.96136364 C7.41589612,9.15681416 7.16457068,8.5772745 6.66191226,8.22272727 C6.15925383,7.86818005 5.47413379,7.69090909 4.60653158,7.69090909 L2.72673618,7.69090909 L2.72673618,12.1090909 L4.31733228,12.1090909 C5.32264913,12.1090909 6.09039672,11.9590924 6.62059807,11.6590909 L6.62059807,11.6590909 Z" id="B"></path>
                                </g>
                            </g>
                        </g>
                    </g>
                </g>
            </g>
        </g>
    </g>
</svg>