<?xml version="1.0" encoding="UTF-8" standalone="no"?>
<svg width="13px" height="14px" viewBox="0 0 13 14" version="1.1" xmlns="http://www.w3.org/2000/svg" xmlns:xlink="http://www.w3.org/1999/xlink" xmlns:sketch="http://www.bohemiancoding.com/sketch/ns">
    <!-- Generator: Sketch 3.5.2 (25235) - http://www.bohemiancoding.com/sketch -->
    <title>Rectangle 337 Copy 10</title>
    <desc>Created with Sketch.</desc>
    <defs></defs>
    <g id="Page-1" stroke="none" stroke-width="1" fill="none" fill-rule="evenodd" sketch:type="MSPage">
        <g id="Post-a-job" sketch:type="MSArtboardGroup" transform="translate(-594.000000, -888.000000)" fill="#000000" opacity="0.7">
            <g id="Field-+-Rectangle-447-Copy-+-Group" sketch:type="MSLayerGroup" transform="translate(318.000000, 231.000000)">
                <g id="Group" transform="translate(0.000000, 318.000000)" sketch:type="MSShapeGroup">
                    <g id="Rectangle-330-+-Job-Description" transform="translate(0.000000, 297.000000)">
                        <g id="Rectangle-330" transform="translate(0.000000, 29.000000)">
                            <g id="Rectangle-330-+-Group">
                                <g id="Group" transform="translate(21.000000, 12.000000)">
                                    <path d="M255.54279,1 L267.54279,1 L267.54279,2.70454545 L255.54279,2.70454545 L255.54279,1 Z M257.54279,5 L267.54279,5 L267.54279,6.70454545 L257.54279,6.70454545 L257.54279,5 Z M255.54279,9 L267.54279,9 L267.54279,10.7045455 L255.54279,10.7045455 L255.54279,9 Z M261.54279,13 L267.54279,13 L267.54279,14.7045455 L261.54279,14.7045455 L261.54279,13 Z" id="Rectangle-337-Copy-10" transform="translate(261.542790, 7.852273) scale(-1, 1) translate(-261.542790, -7.852273) "></path>
                                </g>
                            </g>
                        </g>
                    </g>
                </g>
            </g>
        </g>
    </g>
</svg>