<svg xmlns="http://www.w3.org/2000/svg" xmlns:xlink="http://www.w3.org/1999/xlink" version="1.1" x="0px" y="0px" viewBox="0 0 100 125" enable-background="new 0 0 100 100" xml:space="preserve"><path fill="#fff" d="M80.87,51.238c-3.51,0-6.356,2.846-6.356,6.354v26.979c0,1.465-1.188,2.654-2.65,2.654H15.362  c-1.462,0-2.652-1.189-2.652-2.654V28.073c0-1.462,1.19-2.652,2.652-2.652h26.979c3.511,0,6.355-2.845,6.355-6.355  s-2.845-6.354-6.355-6.354H15.362C6.892,12.711,0,19.602,0,28.073v56.499c0,8.472,6.892,15.363,15.362,15.363h56.501  c8.47,0,15.361-6.892,15.361-15.363V57.593C87.225,54.084,84.38,51.238,80.87,51.238z"/><path fill="#fff" d="M84.572,0H58.229c-3.51,0-6.354,2.845-6.354,6.355c0,3.51,2.844,6.356,6.354,6.356h20.01L36.065,54.883  c-2.483,2.481-2.483,6.505,0,8.987c1.24,1.24,2.868,1.861,4.493,1.861c1.627,0,3.253-0.621,4.494-1.861l42.172-42.172v20.008  c0,3.51,2.846,6.355,6.354,6.355c3.512,0,6.356-2.845,6.356-6.355V15.362C99.935,6.892,93.045,0,84.572,0z"/></svg>