<?xml version="1.0" encoding="UTF-8" standalone="no"?>
<svg width="14px" height="19px" viewBox="0 0 14 19" version="1.1" xmlns="http://www.w3.org/2000/svg" xmlns:xlink="http://www.w3.org/1999/xlink" xmlns:sketch="http://www.bohemiancoding.com/sketch/ns">
    <!-- Generator: Sketch 3.4.4 (17249) - http://www.bohemiancoding.com/sketch -->
    <title>Oval 8</title>
    <desc>Created with Sketch.</desc>
    <defs></defs>
    <g id="Page-1" stroke="none" stroke-width="1" fill="none" fill-rule="evenodd" sketch:type="MSPage">
        <g id="Artboard-2" sketch:type="MSArtboardGroup" transform="translate(-470.000000, -1484.000000)" fill="#D8D8D8">
            <g id="Feautured-jobs" sketch:type="MSLayerGroup" transform="translate(118.000000, 1365.000000)">
                <g id="Group-+-Group-Copy-4-+-Group-Copy-5" transform="translate(0.000000, 60.000000)" sketch:type="MSShapeGroup">
                    <g id="Group-Copy-6">
                        <g id="New-York,-NY-+-28-Dec-2016-+-Rectangle-25" transform="translate(214.000000, 52.000000)">
                            <g id="New-York,-NY-+-Oval-8" transform="translate(138.000000, 0.000000)">
                                <path d="M5.73235281,24.4496365 C6.43245502,25.3058786 7.57283938,25.313362 8.26764719,24.4496365 C8.26764719,24.4496365 14,17.8659932 14,14 C14,10.1340068 10.8659932,7 7,7 C3.13400675,7 0,10.1340068 0,14 C0,17.8659932 5.73235281,24.4496365 5.73235281,24.4496365 Z M7,17 C8.65685425,17 10,15.6568542 10,14 C10,12.3431458 8.65685425,11 7,11 C5.34314575,11 4,12.3431458 4,14 C4,15.6568542 5.34314575,17 7,17 Z" id="Oval-8"></path>
                            </g>
                        </g>
                    </g>
                </g>
            </g>
        </g>
    </g>
</svg>