<?xml version="1.0" encoding="UTF-8" standalone="no"?>
<svg width="158px" height="14px" viewBox="0 0 158 14" version="1.1" xmlns="http://www.w3.org/2000/svg" xmlns:xlink="http://www.w3.org/1999/xlink" xmlns:sketch="http://www.bohemiancoding.com/sketch/ns">
    <!-- Generator: Sketch 3.4.4 (17249) - http://www.bohemiancoding.com/sketch -->
    <title>SMARTJOBBOARD + SMARTJOBBOARD Copy</title>
    <desc>Created with Sketch.</desc>
    <defs></defs>
    <g id="Page-1" stroke="none" stroke-width="1" fill="none" fill-rule="evenodd" sketch:type="MSPage">
        <g id="Artboard-2" sketch:type="MSArtboardGroup" transform="translate(-108.000000, -32.000000)">
            <g id="Header" sketch:type="MSLayerGroup" transform="translate(-11.000000, 0.000000)">
                <g id="SMARTJOBBOARD-+-SMARTJOBBOARD-Copy" transform="translate(119.000000, 32.000000)" sketch:type="MSShapeGroup">
                    <path d="M59.1920001,11.866 C59.4980001,12.244 60.3620001,13.18 61.9280001,13.18 C64.0340001,13.18 65.7980001,11.74 65.7980001,9.238 L65.7980001,0.742 C65.7980001,0.562 65.6540001,0.4 65.4560001,0.4 L63.2600001,0.4 C63.0620001,0.4 62.9180001,0.562 62.9180001,0.742 L62.9180001,9.22 C62.9180001,10.12 62.3600001,10.588 61.8560001,10.588 C61.3700001,10.588 61.1540001,10.426 60.9380001,10.21 C60.7940001,10.066 60.5960001,10.084 60.4520001,10.21 L59.2280001,11.416 C59.1200001,11.542 59.1020001,11.722 59.1920001,11.866 L59.1920001,11.866 Z M68.2122501,6.718 C68.2122501,10.318 71.0742501,13.18 74.6742501,13.18 C78.2742501,13.18 81.1542501,10.318 81.1542501,6.718 C81.1542501,3.118 78.2742501,0.22 74.6742501,0.22 C71.0742501,0.22 68.2122501,3.118 68.2122501,6.718 L68.2122501,6.718 Z M71.0922501,6.718 C71.0922501,4.738 72.7122501,3.1 74.6742501,3.1 C76.6542501,3.1 78.2742501,4.738 78.2742501,6.718 C78.2742501,8.68 76.6542501,10.3 74.6742501,10.3 C72.7122501,10.3 71.0922501,8.68 71.0922501,6.718 L71.0922501,6.718 Z M83.8385001,12.658 C83.8385001,12.838 83.9825001,13 84.1805001,13 L88.6445001,13 C90.7865001,13 92.5685001,11.542 92.5685001,9.526 C92.5685001,7.87 91.1105001,6.988 90.1565001,6.592 C91.0025001,6.142 92.2445001,5.134 92.2445001,3.748 C92.2445001,1.858 90.4985001,0.4 88.3745001,0.4 L84.1805001,0.4 C83.9825001,0.4 83.8385001,0.562 83.8385001,0.742 L83.8385001,12.658 Z M86.6465001,5.512 L86.6465001,2.992 L88.0505001,2.992 C88.7345001,2.992 89.3105001,3.496 89.3105001,4.216 C89.3105001,4.936 88.7345001,5.512 88.0505001,5.512 L86.6465001,5.512 Z M86.6465001,10.426 L86.6465001,7.852 L88.1045001,7.852 C88.8065001,7.852 89.5805001,8.392 89.5805001,9.112 C89.5805001,9.85 88.9865001,10.426 88.2845001,10.426 L86.6465001,10.426 Z M95.3607502,12.658 C95.3607502,12.838 95.5047502,13 95.7027502,13 L100.16675,13 C102.30875,13 104.09075,11.542 104.09075,9.526 C104.09075,7.87 102.63275,6.988 101.67875,6.592 C102.52475,6.142 103.76675,5.134 103.76675,3.748 C103.76675,1.858 102.02075,0.4 99.8967502,0.4 L95.7027502,0.4 C95.5047502,0.4 95.3607502,0.562 95.3607502,0.742 L95.3607502,12.658 Z M98.1687502,5.512 L98.1687502,2.992 L99.5727502,2.992 C100.25675,2.992 100.83275,3.496 100.83275,4.216 C100.83275,4.936 100.25675,5.512 99.5727502,5.512 L98.1687502,5.512 Z M98.1687502,10.426 L98.1687502,7.852 L99.6267502,7.852 C100.32875,7.852 101.10275,8.392 101.10275,9.112 C101.10275,9.85 100.50875,10.426 99.8067502,10.426 L98.1687502,10.426 Z M105.965,6.718 C105.965,10.318 108.827,13.18 112.427,13.18 C116.027,13.18 118.907,10.318 118.907,6.718 C118.907,3.118 116.027,0.22 112.427,0.22 C108.827,0.22 105.965,3.118 105.965,6.718 L105.965,6.718 Z M108.845,6.718 C108.845,4.738 110.465,3.1 112.427,3.1 C114.407,3.1 116.027,4.738 116.027,6.718 C116.027,8.68 114.407,10.3 112.427,10.3 C110.465,10.3 108.845,8.68 108.845,6.718 L108.845,6.718 Z M120.16925,13 L122.14925,13 C122.50925,13 122.70725,12.784 122.79725,12.568 L123.44525,11.128 L128.34125,11.128 L128.98925,12.55 C129.15125,12.892 129.29525,13 129.61925,13 L131.61725,13 C131.88725,13 132.03125,12.766 131.92325,12.532 L126.28925,0.418 C126.23525,0.31 126.10925,0.22 125.98325,0.22 L125.80325,0.22 C125.67725,0.22 125.55125,0.31 125.49725,0.418 L119.86325,12.532 C119.75525,12.766 119.89925,13 120.16925,13 L120.16925,13 Z M124.52525,8.68 L125.87525,5.71 L125.89325,5.71 L127.26125,8.68 L124.52525,8.68 Z M133.9055,12.658 C133.9055,12.838 134.0495,13 134.2475,13 L136.3895,13 C136.5695,13 136.7315,12.838 136.7315,12.658 L136.7315,8.068 L137.9735,8.068 L140.3675,12.838 C140.4035,12.91 140.5115,13 140.6555,13 L143.0495,13 C143.3555,13 143.4815,12.712 143.3555,12.478 L140.8895,7.906 C142.4555,7.276 143.5535,5.944 143.5535,4.288 C143.5535,2.146 141.7895,0.4 139.6295,0.4 L134.2475,0.4 C134.0495,0.4 133.9055,0.562 133.9055,0.742 L133.9055,12.658 Z M136.7315,5.782 L136.7315,2.974 L139.3955,2.974 C140.1335,2.974 140.7635,3.586 140.7635,4.342 C140.7635,5.098 140.1335,5.782 139.3955,5.782 L136.7315,5.782 Z M146.47175,12.658 C146.47175,12.838 146.61575,13 146.79575,13 L151.18775,13 C154.66175,13 157.50575,10.174 157.50575,6.682 C157.50575,3.226 154.66175,0.4 151.18775,0.4 L146.79575,0.4 C146.61575,0.4 146.47175,0.562 146.47175,0.742 L146.47175,12.658 Z M149.27975,10.336 L149.27975,3.046 L151.00775,3.046 C153.04175,3.046 154.51775,4.648 154.51775,6.682 C154.51775,8.734 153.04175,10.336 151.00775,10.336 L149.27975,10.336 Z" id="SMARTJOBBOARD" fill="#FF8B50"></path>
                    <path d="M0.18,11.574 C0.594,11.988 1.89,12.96 4.23,12.96 C6.876,12.96 8.478,11.088 8.478,9.234 C8.478,6.786 6.246,5.688 4.842,5.13 C3.42,4.554 2.88,4.05 2.88,3.384 C2.88,2.898 3.366,2.466 4.014,2.466 C5.112,2.466 6.426,3.456 6.588,3.546 C6.75,3.672 7.074,3.51 7.2,3.312 L8.118,1.926 C8.19,1.8 8.226,1.476 8.01,1.35 C7.47,0.954 6.03,0 4.158,0 C1.386,0 0,1.8 0,3.582 C0,5.742 1.944,6.948 3.492,7.56 C4.716,8.046 5.346,8.622 5.346,9.378 C5.346,10.008 4.824,10.458 4.104,10.458 C2.916,10.458 1.62,9.504 1.548,9.468 C1.422,9.378 1.08,9.342 0.936,9.576 L0.09,11.07 C-0.054,11.322 0,11.394 0.18,11.574 L0.18,11.574 Z M10.332,12.384 C10.296,12.618 10.458,12.78 10.674,12.78 L12.798,12.78 C12.978,12.78 13.122,12.636 13.14,12.492 L13.932,6.93 L13.968,6.93 L17.01,12.762 C17.064,12.87 17.208,12.96 17.316,12.96 L17.64,12.96 C17.73,12.96 17.892,12.87 17.946,12.762 L20.97,6.93 L21.006,6.93 L21.816,12.492 C21.834,12.636 21.996,12.78 22.158,12.78 L24.282,12.78 C24.498,12.78 24.66,12.618 24.624,12.384 L22.59,0.288 C22.572,0.126 22.41,0 22.266,0 L21.978,0 C21.888,0 21.726,0.072 21.672,0.18 L17.496,7.956 L17.46,7.956 L13.284,0.18 C13.23,0.072 13.068,0 12.978,0 L12.69,0 C12.546,0 12.384,0.126 12.366,0.288 L10.332,12.384 Z M26.064,12.78 L28.044,12.78 C28.404,12.78 28.602,12.564 28.692,12.348 L29.34,10.908 L34.236,10.908 L34.884,12.33 C35.046,12.672 35.19,12.78 35.514,12.78 L37.512,12.78 C37.782,12.78 37.926,12.546 37.818,12.312 L32.184,0.198 C32.13,0.09 32.004,0 31.878,0 L31.698,0 C31.572,0 31.446,0.09 31.392,0.198 L25.758,12.312 C25.65,12.546 25.794,12.78 26.064,12.78 L26.064,12.78 Z M30.42,8.46 L31.77,5.49 L31.788,5.49 L33.156,8.46 L30.42,8.46 Z M39.7440001,12.438 C39.7440001,12.618 39.8880001,12.78 40.0860001,12.78 L42.2280001,12.78 C42.4080001,12.78 42.5700001,12.618 42.5700001,12.438 L42.5700001,7.848 L43.8120001,7.848 L46.2060001,12.618 C46.2420001,12.69 46.3500001,12.78 46.4940001,12.78 L48.8880001,12.78 C49.1940001,12.78 49.3200001,12.492 49.1940001,12.258 L46.7280001,7.686 C48.2940001,7.056 49.3920001,5.724 49.3920001,4.068 C49.3920001,1.926 47.6280001,0.18 45.4680001,0.18 L40.0860001,0.18 C39.8880001,0.18 39.7440001,0.342 39.7440001,0.522 L39.7440001,12.438 Z M42.5700001,5.562 L42.5700001,2.754 L45.2340001,2.754 C45.9720001,2.754 46.6020001,3.366 46.6020001,4.122 C46.6020001,4.878 45.9720001,5.562 45.2340001,5.562 L42.5700001,5.562 Z M53.8740001,12.438 C53.8740001,12.618 54.0360001,12.78 54.2160001,12.78 L56.3760001,12.78 C56.5560001,12.78 56.7180001,12.618 56.7180001,12.438 L56.7180001,2.826 L59.2920001,2.826 C59.4900001,2.826 59.6340001,2.664 59.6340001,2.484 L59.6340001,0.522 C59.6340001,0.342 59.4900001,0.18 59.2920001,0.18 L51.3000001,0.18 C51.1020001,0.18 50.9580001,0.342 50.9580001,0.522 L50.9580001,2.484 C50.9580001,2.664 51.1020001,2.826 51.3000001,2.826 L53.8740001,2.826 L53.8740001,12.438 Z" id="SMARTJOBBOARD-Copy" fill="#363636"></path>
                </g>
            </g>
        </g>
    </g>
</svg>