<?xml version="1.0" encoding="UTF-8" standalone="no"?>
<svg width="22px" height="12px" viewBox="0 0 22 12" version="1.1" xmlns="http://www.w3.org/2000/svg" xmlns:xlink="http://www.w3.org/1999/xlink" xmlns:sketch="http://www.bohemiancoding.com/sketch/ns">
    <!-- Generator: Sketch 3.5.2 (25235) - http://www.bohemiancoding.com/sketch -->
    <title>Shape</title>
    <desc>Created with Sketch.</desc>
    <defs></defs>
    <g id="Page-1" stroke="none" stroke-width="1" fill="none" fill-rule="evenodd" sketch:type="MSPage">
        <g id="Post-a-job" sketch:type="MSArtboardGroup" transform="translate(-449.000000, -888.000000)" fill="#000000" opacity="0.7">
            <g id="Field-+-Rectangle-447-Copy-+-Group" sketch:type="MSLayerGroup" transform="translate(318.000000, 231.000000)">
                <g id="Group" transform="translate(0.000000, 318.000000)" sketch:type="MSShapeGroup">
                    <g id="Rectangle-330-+-Job-Description" transform="translate(0.000000, 297.000000)">
                        <g id="Rectangle-330" transform="translate(0.000000, 29.000000)">
                            <g id="Rectangle-330-+-Group">
                                <g id="Group" transform="translate(21.000000, 12.000000)">
                                    <path d="M121.801531,11.2063013 C122.83958,12.2109365 124.230822,12.7840909 125.711795,12.7840909 C128.801624,12.7840909 131.306424,10.3038502 131.306424,7.24431818 C131.306424,4.18478619 128.801624,1.70454545 125.711795,1.70454545 C124.183795,1.70454545 122.752244,2.31485259 121.706433,3.37659922 C121.466724,3.6199615 121.471638,4.00966335 121.71741,4.24702266 C121.963182,4.48438197 122.356743,4.47951561 122.596453,4.23615333 C123.410621,3.40957985 124.522384,2.93560606 125.711795,2.93560606 C128.114995,2.93560606 130.063174,4.86468219 130.063174,7.24431818 C130.063174,9.62395418 128.114995,11.5530303 125.711795,11.5530303 C124.558938,11.5530303 123.478582,11.1079522 122.670535,10.3259158 C122.425016,10.0882998 122.03145,10.0927551 121.791481,10.3358668 C121.551512,10.5789786 121.556011,10.9686853 121.801531,11.2063013 Z M119.676053,3.28233511 C118.638003,2.27769988 117.246761,1.70454545 115.765788,1.70454545 C112.67596,1.70454545 110.171159,4.18478619 110.171159,7.24431818 C110.171159,10.3038502 112.67596,12.7840909 115.765788,12.7840909 C117.293788,12.7840909 118.725339,12.1737838 119.77115,11.1120371 C120.01086,10.8686749 120.005945,10.478973 119.760173,10.2416137 C119.514401,10.0042544 119.12084,10.0091208 118.88113,10.252483 C118.066963,11.0790565 116.955199,11.5530303 115.765788,11.5530303 C113.362588,11.5530303 111.41441,9.62395418 111.41441,7.24431818 C111.41441,4.86468219 113.362588,2.93560606 115.765788,2.93560606 C116.918645,2.93560606 117.999001,3.38068419 118.807049,4.1627206 C119.052568,4.40033651 119.446133,4.39588127 119.686102,4.15276953 C119.926071,3.90965779 119.921572,3.51995103 119.676053,3.28233511 Z M115.765788,7.24431818 C115.765788,6.56442218 116.314696,6.01325758 117.005347,6.01325758 L124.472237,6.01325758 C125.156826,6.01325758 125.711795,6.55968207 125.711795,7.24431818 C125.711795,7.92421418 125.162887,8.47537879 124.472237,8.47537879 L117.005347,8.47537879 C116.320757,8.47537879 115.765788,7.92895429 115.765788,7.24431818 Z" id="Shape"></path>
                                </g>
                            </g>
                        </g>
                    </g>
                </g>
            </g>
        </g>
    </g>
</svg>