<?xml version="1.0" encoding="UTF-8" standalone="no"?>
<svg width="22px" height="15px" viewBox="0 0 22 15" version="1.1" xmlns="http://www.w3.org/2000/svg" xmlns:xlink="http://www.w3.org/1999/xlink" xmlns:sketch="http://www.bohemiancoding.com/sketch/ns">
    <!-- Generator: Sketch 3.5.2 (25235) - http://www.bohemiancoding.com/sketch -->
    <title>1</title>
    <desc>Created with Sketch.</desc>
    <defs></defs>
    <g id="Page-1" stroke="none" stroke-width="1" fill="none" fill-rule="evenodd" sketch:type="MSPage">
        <g id="Post-a-job" sketch:type="MSArtboardGroup" transform="translate(-235.000000, -887.000000)" fill="#000000" opacity="0.7">
            <g id="Field-+-Rectangle-447-Copy-+-Group" sketch:type="MSLayerGroup" transform="translate(11.000000, 231.000000)">
                <g id="Group" transform="translate(0.000000, 318.000000)" sketch:type="MSShapeGroup">
                    <g id="Rectangle-330-+-Job-Description" transform="translate(0.000000, 297.000000)">
                        <g id="Rectangle-330" transform="translate(0.000000, 29.000000)">
                            <g id="Rectangle-330-+-Group">
                                <g id="Group" transform="translate(21.000000, 12.000000)">
                                    <path d="M210.387512,1.70454545 L224.158907,1.70454545 L224.158907,3.40909091 L210.387512,3.40909091 L210.387512,1.70454545 Z M210.387512,6.81818182 L224.158907,6.81818182 L224.158907,8.52272727 L210.387512,8.52272727 L210.387512,6.81818182 Z M210.387512,11.9318182 L224.158907,11.9318182 L224.158907,13.6363636 L210.387512,13.6363636 L210.387512,11.9318182 Z M205.967821,5.05705676 L204.580763,5.05705676 L204.580763,2.37979142 C204.580763,2.05464387 204.587681,1.75717292 204.601517,1.48736963 C204.516194,1.59114013 204.410119,1.69952102 204.283289,1.81251555 L203.709095,2.28639844 L203,1.41473065 L204.736418,0 L205.967821,0 L205.967821,5.05705676 Z M207.326322,14.9572283 L203.064272,14.9572283 L203.064272,13.9128052 L204.498345,12.462664 C204.908083,12.0341806 205.175881,11.7416112 205.301748,11.584947 C205.427615,11.4282827 205.515319,11.2937142 205.564862,11.1812373 C205.614405,11.0687604 205.639177,10.9509293 205.639177,10.8277403 C205.639177,10.6750931 205.589634,10.5545839 205.490547,10.4662092 C205.39146,10.3778345 205.252205,10.3336479 205.072778,10.3336479 C204.887995,10.3336479 204.701205,10.386538 204.512405,10.4923198 C204.323604,10.5981017 204.110035,10.754094 203.871692,10.9603017 L203,9.93998072 C203.302616,9.66950059 203.557025,9.47601646 203.763232,9.35952254 C203.96944,9.24302862 204.193721,9.15398575 204.436082,9.09239127 C204.678443,9.03079678 204.950927,9 205.253544,9 C205.633823,9 205.973257,9.06694952 206.271856,9.20085058 C206.570455,9.33475164 206.802101,9.52555778 206.966799,9.77327474 C207.131497,10.0209917 207.213845,10.2988322 207.213845,10.6068047 C207.213845,10.8371145 207.185057,11.050014 207.127479,11.2455095 C207.069902,11.441005 206.980859,11.6331502 206.860348,11.8219507 C206.739837,12.0107512 206.579828,12.2095913 206.380315,12.4184769 C206.180803,12.6273626 205.755673,13.0237037 205.104914,13.6075123 L205.104914,13.6476825 L207.326322,13.6476825 L207.326322,14.9572283 Z" id="1"></path>
                                </g>
                            </g>
                        </g>
                    </g>
                </g>
            </g>
        </g>
    </g>
</svg>